<svg width="60" height="60" viewBox="0 0 60 60" fill="none" xmlns="http://www.w3.org/2000/svg">
<path fill-rule="evenodd" clip-rule="evenodd" d="M12.272 0.100837C11.7541 0.292742 8.89003 2.44838 8.4146 3.00412C7.96918 3.52474 7.73431 4.17262 7.73431 4.88031C7.73431 5.33265 7.63182 5.45385 5.18523 7.89317C3.78327 9.29099 2.48997 10.6799 2.31137 10.9795C2.00172 11.4991 1.98465 11.6136 1.94545 13.4458C1.91229 14.9929 1.94218 15.4666 2.09888 15.877C2.33097 16.4852 2.78861 16.9511 3.4084 17.2101L3.86216 17.3998V22.2277V27.0556L3.44216 27.1344C2.91518 27.2335 2.30665 27.7374 2.09114 28.2535C1.85167 28.8268 1.86764 31.2657 2.11377 31.7381C2.28741 32.0713 2.28305 32.1164 2.04975 32.404C-0.215212 35.1973 -0.619851 38.5347 0.919329 41.7269C1.38326 42.6889 1.63846 43.0386 2.52131 43.922C3.40416 44.8054 3.75362 45.0607 4.71513 45.5249C6.29303 46.2866 7.2319 46.4548 9.90732 46.4548C11.108 46.4548 12.0905 46.4899 12.0905 46.5329C12.0905 46.5759 11.8988 47.0098 11.6644 47.4972C11.055 48.765 10.2024 49.3433 8.92488 49.3553C7.69583 49.3669 6.17517 50.0973 5.46911 51.0153C5.28409 51.2559 4.9149 51.8666 4.64869 52.3726C4.35489 52.931 4.04585 53.3509 3.86216 53.4413C3.69578 53.5233 3.19361 53.7576 2.74626 53.9621C0.769404 54.8656 -0.409061 56.8765 0.161839 58.3723C0.409415 59.0208 1.13677 59.7098 1.76733 59.8929C2.09937 59.9893 9.02374 60.0167 26.49 59.9907L50.7515 59.9548L51.5525 59.6425C52.7262 59.1851 53.3574 58.7789 54.17 57.9582C54.928 57.1926 55.4684 56.2952 55.8474 55.1722C56.1583 54.2511 56.1591 52.2231 55.8489 51.2978C55.5669 50.4563 55.0018 49.4242 54.5233 48.8763L54.1533 48.4525L56.0221 48.392C58.167 48.3225 58.5097 48.2124 59.2695 47.3488C59.9665 46.5564 60.0352 46.1518 59.9885 43.1137L59.9478 40.4615L59.5649 39.6527C59.0321 38.5275 58.346 37.8261 57.245 37.2815L56.3309 36.8292L54.2369 36.787C52.1608 36.7451 52.143 36.7424 52.143 36.4733C52.143 35.746 51.6481 30.3295 51.5283 29.7463C51.1866 28.0817 49.8858 26.4783 48.2639 25.7221L47.4239 25.3305V23.3008V21.271H46.4558H45.4878V23.2082V25.1454H42.7617H40.0357L27.7873 14.7751L15.5391 4.40485L15.477 3.00049C15.4061 1.39865 15.2039 0.91023 14.3878 0.369868C13.8617 0.0215321 12.8376 -0.108746 12.272 0.100837ZM13.3973 2.04411C13.5087 2.1555 13.5425 5.5472 13.5425 16.5732V30.9571H8.70235H3.86216V29.9884V29.0198H6.76628H9.67039V16.7537C9.67039 7.12869 9.70294 4.44444 9.82164 4.2868C10.0687 3.95868 12.8609 1.90523 13.0646 1.90196C13.1677 1.90015 13.3175 1.9642 13.3973 2.04411ZM26.3085 16.0647L37.0337 25.1454H34.9939C32.7796 25.1454 32.0362 25.2694 30.9515 25.8193C30.341 26.1288 29.0618 27.2829 28.815 27.7467C28.6905 27.9808 28.681 27.9791 28.4494 27.6862C28.3185 27.5207 25.3489 23.7621 21.85 19.3338L15.4887 11.2822L15.4836 9.13311C15.4809 7.95104 15.5022 6.98401 15.531 6.98401C15.5598 6.98401 20.4097 11.0703 26.3085 16.0647ZM6.04339 13.8206C3.91468 15.9505 3.93743 15.9523 3.88878 13.6425L3.8549 12.0331L5.76436 10.1087L7.67381 8.18435L7.70721 10.1534L7.74061 12.1225L6.04339 13.8206ZM21.8679 22.4654C27.6546 29.8066 27.9133 30.1564 27.868 30.5775C27.8419 30.8195 27.6846 34.2594 27.5183 38.2216C27.3522 42.1838 27.1853 45.807 27.1478 46.2732L27.0795 47.1207L26.5126 47.4532C26.2007 47.636 25.8537 47.8515 25.7415 47.932C25.5729 48.0529 25.2298 47.9558 23.7699 47.3741C21.8118 46.594 21.9915 46.741 20.3529 44.5783C19.6338 43.6292 19.4213 43.4349 18.7027 43.0688C17.9603 42.6906 17.7577 42.6438 16.6781 42.6004L15.4786 42.5521V41.7806V41.009L14.5106 40.5221L13.5425 40.0351V36.4781V32.9213L13.9625 32.8424C14.4895 32.7434 15.0981 32.2395 15.3136 31.7233C15.4476 31.4022 15.4786 29.7417 15.4786 22.8835C15.4786 15.6075 15.5022 14.4634 15.6495 14.6162C15.7435 14.7136 18.5417 18.2458 21.8679 22.4654ZM7.73431 21.0288V27.0826H6.76628H5.79824V21.9698V16.857L6.73324 15.916C7.24739 15.3984 7.68301 14.975 7.70128 14.975C7.71943 14.975 7.73431 17.6992 7.73431 21.0288ZM47.0264 27.2792C48.2594 27.698 49.2145 28.6572 49.5434 29.8068C49.7814 30.6387 50.2106 35.6802 50.308 38.788C50.3959 41.5893 50.4167 41.6685 51.2213 42.2701C51.5361 42.5055 51.7415 42.5219 54.8137 42.5556L58.0723 42.5915V44.2259C58.0723 45.7999 58.0613 45.8714 57.7752 46.1575L57.4783 46.4548H43.3151H29.1521V45.6748C29.1521 44.6764 29.728 31.6145 29.8139 30.6648C29.9279 29.4039 30.7254 28.1308 31.7292 27.6074C32.6823 27.1102 32.8546 27.0991 39.7661 27.0907C45.6281 27.0836 46.5184 27.1067 47.0264 27.2792ZM32.9364 29.2733C31.934 29.7698 31.9665 29.614 31.4303 36.5022C31.1675 39.8785 30.9856 42.8191 31.0263 43.0369C31.1267 43.5755 31.7413 44.2447 32.2793 44.4013C32.5767 44.4879 35.0859 44.5182 39.931 44.4936L47.1403 44.457L47.5738 44.1261C47.8306 43.9302 48.0899 43.5787 48.2099 43.2644C48.4044 42.7551 48.393 42.4818 47.932 36.5488C47.3917 29.5964 47.426 29.7613 46.4131 29.2706C45.9101 29.027 45.7193 29.0198 39.6716 29.02C33.6006 29.0201 33.4352 29.0263 32.9364 29.2733ZM38.7115 36.751V42.545L35.8569 42.6323C34.2867 42.6804 32.9801 42.6977 32.9533 42.6707C32.9263 42.6437 33.1055 39.9971 33.3515 36.7894L33.7988 30.9571H36.2551H38.7115V36.751ZM45.9546 36.133C46.1724 38.9798 46.3818 41.5951 46.4199 41.9447L46.4891 42.5803H43.5684H40.6476V36.7687V30.9571H43.103H45.5586L45.9546 36.133ZM7.73431 38.6951V44.4961L6.9905 44.3225C5.4086 43.9532 3.85611 42.8484 2.96891 41.4606C1.40129 39.0087 1.67863 35.7088 3.63201 33.5702L4.2495 32.8943H5.99185H7.73431V38.6951ZM11.6065 37.0701V41.2458L12.5745 41.7328L13.5425 42.2198V43.3687V44.5176H11.6065H9.67039V38.7059V32.8943H10.6384H11.6065V37.0701ZM54.2001 39.6745V40.6431H53.2321H52.264V39.6745V38.7059H53.2321H54.2001V39.6745ZM56.596 39.1189C57.0889 39.3766 57.8303 40.251 57.8303 40.5746C57.8303 40.6123 57.4491 40.6431 56.9832 40.6431H56.1362V39.7956C56.1362 39.3295 56.1661 38.9481 56.2027 38.9481C56.2393 38.9481 56.4162 39.025 56.596 39.1189ZM17.7777 44.7297C18.0561 44.8688 18.575 45.4337 19.2927 46.379C19.893 47.1697 20.6046 47.9696 20.8742 48.1564C21.1437 48.3432 22.0034 48.7521 22.7846 49.0648C23.6388 49.4069 24.1808 49.6878 24.1444 49.7695C23.373 51.497 23.1662 52.4255 23.2647 53.7193C23.373 55.142 23.9539 56.5726 24.8378 57.5938L25.2047 58.0175L13.8982 58.0508C7.67962 58.0691 2.46988 58.0547 2.32117 58.0187C1.8916 57.9149 1.84417 57.4269 2.20996 56.8738C2.63106 56.2371 3.15683 55.8575 4.21392 55.4271C5.33285 54.9715 5.55466 54.7588 6.24136 53.4831C7.17164 51.7551 7.55898 51.4598 9.10614 51.2994C10.4688 51.1581 11.3459 50.8023 12.155 50.0624C12.9232 49.3598 13.2495 48.8446 13.7855 47.4868C14.0757 46.7518 14.3069 46.3867 14.7539 45.9579C15.1618 45.5666 15.3662 45.2607 15.4233 44.9561L15.5056 44.5176L16.4298 44.5178C17.0674 44.5179 17.4856 44.5837 17.7777 44.7297ZM17.4147 49.3606V50.3292H18.3827H19.3508V49.3606V48.392H18.3827H17.4147V49.3606ZM51.3178 48.8357C52.4428 49.369 53.1434 50.0553 53.6877 51.1574C54.1142 52.0209 54.1396 52.1372 54.1396 53.2287C54.1396 54.2756 54.1037 54.46 53.7614 55.1722C53.3962 55.9321 52.5955 56.9884 52.3846 56.9884C52.3281 56.9884 52.2643 56.2021 52.2427 55.2411C52.2002 53.3411 52.1375 53.1497 51.3704 52.5766C51.0408 52.3304 50.9138 52.3265 41.8626 52.2945L32.6887 52.2619L32.5376 51.8968C32.2016 51.0851 30.9776 50.3292 29.9992 50.3292C28.4998 50.3292 27.0951 51.7348 27.0951 53.235C27.0951 54.7353 28.4998 56.1409 29.9992 56.1409C30.9787 56.1409 32.2017 55.3849 32.5386 54.571L32.6907 54.2036H33.765H34.8394V56.1502V58.0967L31.8445 58.0571L28.8496 58.0175L28.0413 57.6343C26.9163 57.1011 26.2157 56.4147 25.6714 55.3127C25.2449 54.4492 25.2195 54.3328 25.2195 53.2413C25.2195 52.194 25.2557 52.0084 25.6025 51.276C25.813 50.8313 26.2077 50.2259 26.4794 49.931C27.0133 49.3515 28.1103 48.7046 28.8639 48.5251C29.1363 48.4602 33.7806 48.4214 39.9216 48.4328L50.5095 48.4525L51.3178 48.8357ZM13.5425 53.235V54.2036H14.5106H15.4786V53.235V52.2664H14.5106H13.5425V53.235ZM30.6702 52.5637C30.8575 52.751 30.9672 52.9992 30.9672 53.235C30.9672 53.4709 30.8575 53.7191 30.6702 53.9064C30.07 54.5071 29.0311 54.0815 29.0311 53.235C29.0311 52.7373 29.5017 52.2664 29.9992 52.2664C30.2349 52.2664 30.483 52.3762 30.6702 52.5637ZM9.67039 55.1722V56.1409H10.6384H11.6065V55.1722V54.2036H10.6384H9.67039V55.1722ZM19.3508 55.1722V56.1409H20.3188H21.2868V55.1722V54.2036H20.3188H19.3508V55.1722ZM38.7115 56.1409V58.0781H37.7435H36.7754V56.1409V54.2036H37.7435H38.7115V56.1409ZM42.5837 56.1409V58.0781H41.6156H40.6476V56.1409V54.2036H41.6156H42.5837V56.1409ZM46.4558 56.1409V58.0781H45.4878H44.5197V56.1409V54.2036H45.4878H46.4558V56.1409ZM50.328 56.0674C50.328 58.2005 50.3985 58.0781 49.1685 58.0781H48.3919V56.1409V54.2036H49.3599H50.328V56.0674Z" fill="#BDBDBD"/>
</svg>
