<svg width="60" height="60" viewBox="0 0 60 60" fill="none" xmlns="http://www.w3.org/2000/svg">
<path fill-rule="evenodd" clip-rule="evenodd" d="M2.48246 0.138044C1.4778 0.44765 0.618794 1.26705 0.21108 2.30482C0.0136104 2.80746 0 3.72384 0 16.5631V30.2843L0.308382 30.93C0.692338 31.7339 1.25024 32.2911 2.02711 32.6464L2.62656 32.9206L17.287 32.9218L31.9475 32.923L32.2404 32.6351C32.7175 32.1665 32.5969 31.5088 31.9743 31.183C31.7831 31.0829 29.4506 31.0466 23.2291 31.0466H14.7446V24.1448C14.7446 17.0271 14.7196 16.6252 14.2623 16.3847C13.8825 16.185 13.3688 16.2539 13.0939 16.5413L12.8343 16.8128V23.9296V31.0466H7.93341C2.52222 31.0466 2.53069 31.0476 2.12119 30.3116C1.92587 29.9606 1.90772 29.2991 1.87668 21.4007L1.84313 12.8689H3.39328C5.06079 12.8689 5.44773 12.7756 5.65785 12.3228C5.84804 11.9127 5.82225 11.6437 5.56258 11.3281C5.34696 11.0661 5.24238 11.048 3.62251 10.9925L1.91023 10.9339V6.92569C1.91023 3.0562 1.91882 2.90597 2.15748 2.58651C2.70858 1.84897 2.7364 1.84545 8.02892 1.84533L12.8343 1.8451V3.12211C12.8343 4.19517 12.87 4.44251 13.0577 4.67014C13.3591 5.03568 14.0507 5.04155 14.4171 4.68175C14.6508 4.45212 14.6863 4.2741 14.7261 3.13372L14.7709 1.8451H31.8621C48.1868 1.8451 48.9715 1.85472 49.36 2.05936C50.1848 2.49386 50.2031 2.60223 50.2031 7.03264V10.9925H36.2851H22.3671L22.0041 11.3491C21.7004 11.6474 21.6533 11.767 21.7152 12.082C21.7559 12.2891 21.9025 12.5508 22.0409 12.6637C22.2774 12.8566 23.1325 12.8689 36.2479 12.8689H50.2031V21.354V29.8391L49.9321 30.2376C49.5559 30.7907 48.9806 31.0462 48.1106 31.0463C47.0224 31.0467 46.4805 31.5525 46.7512 32.3154C46.9361 32.8363 47.2953 32.9611 48.4333 32.8995C49.9595 32.817 51.1156 32.126 51.7842 30.8968C52.0505 30.4074 52.0544 30.3354 52.1134 24.7724L52.1731 19.1432L54.3705 22.3648C55.5792 24.1366 56.6912 25.8518 56.8418 26.1763C57.2077 26.9645 57.2832 27.5281 57.738 32.8643L58.1278 37.4381L56.6044 44.1227C55.7666 47.7993 55.0544 50.8997 55.0218 51.0126C54.9662 51.2056 54.4659 51.2179 46.6772 51.2179H38.392L37.9796 50.8623C37.3034 50.2791 36.2738 48.8718 35.8363 47.9332C35.1335 46.4247 34.9851 45.6528 34.9908 43.5364C34.9967 41.3906 35.2606 39.893 36.1146 37.1611L36.598 35.6143L36.7696 30.7798C37.0003 24.2778 37.0114 24.1297 37.3171 23.4314C37.8245 22.2726 39.0019 21.5807 40.2734 21.694C41.4837 21.8018 42.307 22.3789 42.8244 23.4823L43.0995 24.0687L43.0632 30.9736L43.0268 37.8784L43.2929 38.1567C43.6216 38.5003 44.2136 38.5247 44.6085 38.2108L44.8903 37.9867L44.9837 33.1973C45.0351 30.5632 45.0593 27.3524 45.0373 26.0624C45.0018 23.9718 44.9688 23.6455 44.7329 23.0596C44.1543 21.6224 43.2 20.6413 41.876 20.1224C41.322 19.9053 40.9585 19.853 39.9954 19.8516C38.9397 19.8501 38.7195 19.8875 38.0935 20.174C36.7048 20.8099 35.8433 21.7747 35.3748 23.2187C35.1703 23.8491 35.1141 24.5743 34.9731 28.4079C34.7387 34.7875 34.6692 35.5268 34.1534 37.1272C32.335 42.7694 32.7234 47.3508 35.3049 50.7095L35.7769 51.3235L35.3508 51.7421C35.1164 51.9722 34.8837 52.3047 34.8335 52.4808C34.7833 52.657 34.7422 54.1244 34.7422 55.7416C34.7422 58.6807 34.7424 58.6825 35.0387 59.1071C35.2017 59.3407 35.5328 59.6412 35.7746 59.7746C36.2112 60.0156 36.288 60.017 46.7817 59.9861C57.2922 59.955 57.3509 59.9536 57.6861 59.7095C57.8715 59.5745 58.144 59.2897 58.2918 59.0765C58.5533 58.699 58.5604 58.6085 58.5604 55.6436C58.5604 52.7294 58.5492 52.5788 58.2994 52.1424C58.1268 51.8406 57.8529 51.5954 57.4905 51.4181L56.9427 51.1499L58.4701 44.5285C59.3103 40.8868 59.9987 37.6433 60 37.3208C60.0044 36.2014 59.1496 27.2314 58.9731 26.5444C58.8755 26.1644 58.6972 25.6353 58.577 25.3684C58.4568 25.1014 56.9551 22.8162 55.2397 20.29L52.121 15.697L52.0873 9.09351L52.0537 2.49011L51.736 1.90374C51.3574 1.20489 50.8162 0.680793 50.0838 0.303871L49.5465 0.0273364L26.2656 0.00528874C7.26722 -0.0127716 2.89232 0.0116216 2.48246 0.138044ZM7.7603 5.10921C5.46313 6.18943 5.87395 9.52638 8.54898 11.5147C8.96887 11.8267 9.59543 12.2107 9.94142 12.3678L10.5705 12.6536L10.0502 13.2221C9.38578 13.948 8.76484 15.1163 8.35748 16.4071C8.07178 17.3124 8.05423 17.4601 8.19798 17.7547C8.44153 18.2537 8.9019 18.43 9.4136 18.22C9.78502 18.0675 9.85486 17.9587 10.1434 17.0831C10.8143 15.0477 11.6039 13.9995 13.0283 13.2537L13.7401 12.881L14.4246 13.2562C15.902 14.0659 16.6197 14.9481 17.1763 16.6391C17.6081 17.9511 17.7035 18.1145 18.1199 18.2571C18.5669 18.4102 19.0179 18.2204 19.2739 17.7716C19.4407 17.4794 19.4289 17.3783 19.1156 16.423C18.6808 15.0974 18.0638 13.9371 17.4188 13.2324L16.9079 12.6743L17.4678 12.4081C19.774 11.3113 21.202 9.44968 21.2138 7.52449C21.2305 4.79726 18.0112 3.98666 15.6147 6.11461C15.0316 6.63238 14.05 7.94938 13.8611 8.46762C13.7909 8.65995 13.7062 8.57551 13.354 7.96169C12.7264 6.86752 11.6439 5.78929 10.729 5.34681C9.73225 4.86481 8.49132 4.76548 7.7603 5.10921ZM10.055 7.12388C10.6732 7.47219 11.3961 8.28502 11.8205 9.10923C12.0293 9.51477 12.5956 11.0723 12.5956 11.2413C12.5956 11.3805 11.4239 11.0067 10.6363 10.6163C9.76603 10.1849 8.74502 9.25406 8.42112 8.59685C8.11118 7.96791 8.09303 7.06548 8.38709 6.89731C8.77427 6.67577 9.41372 6.76267 10.055 7.12388ZM19.0642 6.91724C19.8919 7.5673 18.7262 9.61703 17.021 10.5097C16.2594 10.9085 14.9795 11.3797 14.8919 11.2936C14.8186 11.2216 15.193 10.1291 15.5779 9.29206C15.7558 8.90505 16.1205 8.31809 16.3882 7.98773C17.1525 7.04449 18.5265 6.49494 19.0642 6.91724ZM7.82178 35.8208C7.34148 36.0685 7.07118 36.3108 6.80697 36.7304C6.47985 37.2503 6.44702 37.3941 6.44702 38.3085C6.44702 39.3888 6.67732 40.0522 7.30793 40.7885L7.60246 41.1322L5.35329 41.1348C2.91572 41.1376 2.46634 41.2303 1.88838 41.8497C1.43709 42.3332 1.37298 42.7126 1.37298 44.8973C1.37298 47.2845 1.4858 47.7 2.26971 48.1987L2.68327 48.4619L2.68482 53.634C2.68626 58.8038 2.68638 58.8063 2.95488 59.1927C3.10257 59.4052 3.41155 59.6776 3.64137 59.7979C4.04085 60.0069 4.4919 60.0153 13.8703 59.9857C23.6332 59.955 23.683 59.9537 24.0184 59.708C24.2038 59.5723 24.4628 59.2821 24.5942 59.063C24.8204 58.6858 24.8361 58.3959 24.8926 53.5511L24.9523 48.4372L25.3566 48.1032C26.0197 47.5554 26.0865 47.2548 26.0865 44.8243C26.0865 42.5059 26.0406 42.2774 25.4694 41.7535C24.8776 41.2107 24.4503 41.1322 22.0852 41.1322H19.8671L20.2347 40.6828C21.1221 39.5981 21.3426 37.9316 20.7411 36.856C20.554 36.5216 20.1954 36.1226 19.8979 35.9178C19.4127 35.5841 19.3116 35.5617 18.2861 35.5617C17.3329 35.5617 17.1055 35.6034 16.52 35.8858C15.6641 36.2987 14.7429 37.1887 14.1847 38.1419L13.7478 38.8882L13.321 38.1717C12.331 36.5102 10.9635 35.593 9.37205 35.5227C8.57369 35.4875 8.40571 35.5199 7.82178 35.8208ZM10.1908 37.6055C10.4389 37.7298 10.847 38.0546 11.0977 38.3271C11.5361 38.8037 12.2497 40.1443 12.4202 40.8116L12.5021 41.1322L11.8026 41.1311C10.1164 41.1284 8.29755 39.6765 8.29755 38.3332C8.29755 37.631 8.53991 37.3794 9.21625 37.3794C9.50409 37.3794 9.94273 37.4811 10.1908 37.6055ZM18.9436 37.5735C19.2383 37.8354 19.2301 38.6648 18.9272 39.2478C18.4053 40.253 16.8967 41.1322 15.6942 41.1322H14.9788L15.0545 40.8097C15.1941 40.2155 15.9166 38.8504 16.3598 38.3435C16.6012 38.0676 16.9946 37.74 17.2341 37.6158C17.7817 37.3316 18.6474 37.3102 18.9436 37.5735ZM9.73022 44.8264V46.6441H6.50671H3.2832V44.8264V43.0086H6.50671H9.73022V44.8264ZM15.8191 44.8264V46.6441H13.7298H11.6404V44.8264V43.0086H13.7298H15.8191V44.8264ZM24.1763 44.8264V46.6441H20.9528H17.7293V44.8264V43.0086H20.9528H24.1763V44.8264ZM10.4466 53.3875V58.1371H7.52152H4.59648V53.3875V48.6378H7.52152H10.4466V53.3875ZM15.1027 53.3875V58.1371H13.7298H12.3568V53.3875V48.6378H13.7298H15.1027V53.3875ZM22.9824 53.3875V58.1371H19.9977H17.013V53.3875V48.6378H19.9977H22.9824V53.3875ZM56.6502 55.6157V58.1371H46.6215H36.5928V55.6157V53.0943H46.6215H56.6502V55.6157Z" fill="#BDBDBD"/>
</svg>
