<svg width="60" height="60" viewBox="0 0 60 60" fill="none" xmlns="http://www.w3.org/2000/svg">
<path fill-rule="evenodd" clip-rule="evenodd" d="M27.8287 0.0790113C21.0017 0.922123 15.1977 4.74784 11.7997 10.6444C10.25 13.3336 9.34187 16.41 9.11294 19.7461L9.02921 20.9659H7.68902C5.52506 20.9659 4.18689 21.4419 2.88637 22.6744C2.08073 23.4379 1.48587 24.4479 1.20016 25.5376C0.377135 28.6771 2.37387 31.9477 5.62781 32.7897C6.17142 32.9305 7.10336 32.9764 9.41339 32.9764H12.4777L12.7867 32.6692L13.0958 32.3622V26.9711V21.58L12.7867 21.273C12.531 21.0188 12.354 20.9659 11.7608 20.9659H11.044L11.1289 19.7638C11.37 16.357 12.4607 13.1782 14.368 10.3236C15.4244 8.74258 17.916 6.26629 19.5042 5.21863C22.8107 3.03797 26.2398 2.01183 30.2212 2.01183C34.2344 2.01183 37.6037 3.01933 40.9326 5.215C42.5222 6.26354 45.0163 8.74008 46.0687 10.3151C47.9678 13.1576 49.0739 16.3786 49.3134 19.7638L49.3984 20.9659H48.6815C48.0883 20.9659 47.9114 21.0188 47.6556 21.273L47.3465 21.58V26.9711V32.3622L47.6556 32.6692C47.9094 32.9215 48.0894 32.9764 48.663 32.9764H49.3613V34.671C49.3613 36.3035 49.3499 36.377 49.0521 36.6727L48.7431 36.9799H44.9121H41.081L40.9227 36.6003C40.7078 36.0849 39.7894 35.3049 39.1859 35.1253C38.5389 34.9327 35.9976 34.936 35.3356 35.1303C34.6439 35.3333 33.6008 36.3697 33.3964 37.0569C33.0479 38.2292 33.2934 39.164 34.1834 40.0519C35.0219 40.8887 35.5242 41.0244 37.545 40.9607C38.8295 40.9202 39.1879 40.865 39.6143 40.6421C40.1723 40.3503 40.8524 39.6547 40.9848 39.2401C41.0659 38.9863 41.1372 38.9816 44.9163 38.9816C47.5703 38.9816 48.9263 38.9343 49.2837 38.8295C49.9754 38.6264 51.0185 37.59 51.2229 36.9028C51.3103 36.6089 51.376 35.6557 51.376 34.6821V32.9764H52.7347C54.9188 32.9764 56.2516 32.5041 57.556 31.2679C60.0366 28.9171 60.0366 25.0252 57.556 22.6744C56.2555 21.4419 54.9173 20.9659 52.7533 20.9659H51.4131L51.3294 19.7461C50.963 14.4063 48.9132 9.89196 45.1468 6.12992C42.014 3.00069 38.2017 1.02534 33.8099 0.255665C32.4417 0.0158309 29.1314 -0.0818793 27.8287 0.0790113ZM26.5008 4.25816C26.1975 4.55943 26.1917 4.60397 26.1917 6.63912C26.1917 8.40579 26.1625 8.72419 25.9946 8.78825C25.8584 8.84004 25.3387 8.41317 24.3144 7.40804C23.0109 6.12892 22.78 5.95277 22.406 5.95277C22.0213 5.95277 21.7478 6.18397 19.5528 8.36463C17.358 10.5454 17.1253 10.8171 17.1253 11.1994C17.1253 11.5709 17.3026 11.8004 18.5901 13.0955C19.6017 14.1132 20.0314 14.6295 19.9792 14.7648C19.9147 14.9316 19.5943 14.9606 17.8161 14.9606C15.7678 14.9606 15.7229 14.9664 15.4197 15.2678L15.1106 15.5748V18.9641V22.3535L15.4197 22.6605C15.7229 22.9619 15.7678 22.9676 17.8161 22.9676C19.5943 22.9676 19.9147 22.9967 19.9792 23.1634C20.0314 23.2988 19.6017 23.8151 18.5901 24.8328C17.3026 26.1279 17.1253 26.3573 17.1253 26.7289C17.1253 27.1111 17.358 27.3829 19.5528 29.5637C21.7478 31.7443 22.0213 31.9755 22.406 31.9755C22.78 31.9755 23.0109 31.7994 24.3144 30.5202C25.3387 29.5151 25.8584 29.0882 25.9946 29.14C26.1625 29.2041 26.1917 29.5225 26.1917 31.2892C26.1917 33.3243 26.1975 33.3689 26.5008 33.6701L26.8098 33.9773H30.2212H33.6325L33.9415 33.6701C34.2449 33.3689 34.2507 33.3243 34.2507 31.2892C34.2507 29.5225 34.2799 29.2041 34.4477 29.14C34.584 29.0882 35.1037 29.5151 36.1279 30.5202C37.4314 31.7994 37.6624 31.9755 38.0364 31.9755C38.4211 31.9755 38.6946 31.7443 40.8895 29.5637C43.0843 27.3829 43.317 27.1111 43.317 26.7289C43.317 26.3573 43.1397 26.1279 41.8523 24.8328C40.8406 23.8151 40.411 23.2988 40.4631 23.1634C40.5276 22.9967 40.8481 22.9676 42.6262 22.9676C44.6746 22.9676 44.7194 22.9619 45.0226 22.6605L45.3318 22.3535V18.9641V15.5748L45.0226 15.2678C44.7194 14.9664 44.6746 14.9606 42.6262 14.9606C40.8481 14.9606 40.5276 14.9316 40.4631 14.7648C40.411 14.6295 40.8406 14.1132 41.8523 13.0955C43.1397 11.8004 43.317 11.5709 43.317 11.1994C43.317 10.8171 43.0843 10.5454 40.8895 8.36463C38.6946 6.18397 38.4211 5.95277 38.0364 5.95277C37.6624 5.95277 37.4314 6.12892 36.1279 7.40804C35.1037 8.41317 34.584 8.84004 34.4477 8.78825C34.2799 8.72419 34.2507 8.40579 34.2507 6.63912C34.2507 4.60397 34.2449 4.55943 33.9415 4.25816L33.6325 3.95102H30.2212H26.8098L26.5008 4.25816ZM32.2359 7.8224C32.2359 10.0241 32.2702 10.0941 33.6211 10.6495C35.151 11.2787 35.0719 11.3026 36.6837 9.72256L38.1 8.33435L39.509 9.73958L40.9182 11.1448L39.5217 12.5465C37.9321 14.1422 37.9559 14.0645 38.5898 15.5862C39.1488 16.9284 39.2193 16.9624 41.4352 16.9624H43.317V18.9641V20.9659H41.4352C39.2193 20.9659 39.1488 20.9999 38.5898 22.3421C37.9559 23.8638 37.9321 23.7861 39.5217 25.3817L40.9182 26.7835L39.509 28.1887L38.1 29.5939L36.6837 28.2057C35.0719 26.6257 35.151 26.6496 33.6211 27.2788C32.2702 27.8341 32.2359 27.9042 32.2359 30.1059V31.9755H30.2212H28.2064V30.1059C28.2064 27.9042 28.1722 27.8341 26.8213 27.2788C25.2897 26.649 25.3679 26.6253 23.7619 28.2047L22.3511 29.5922L20.9367 28.1921L19.5224 26.7921L20.9196 25.385C22.5099 23.7836 22.4858 23.8622 21.8526 22.3421C21.2936 20.9999 21.2231 20.9659 19.0071 20.9659H17.1253V18.9641V16.9624H19.0071C21.2231 16.9624 21.2936 16.9284 21.8526 15.5862C22.4858 14.0661 22.5099 14.1447 20.9196 12.5433L19.5224 11.1362L20.9367 9.7362L22.3511 8.3361L23.7619 9.72356C25.3679 11.3029 25.2897 11.2793 26.8213 10.6495C28.1722 10.0941 28.2064 10.0241 28.2064 7.8224V5.95277H30.2212H32.2359V7.8224ZM28.7242 13.1567C25.5315 14.0098 23.5561 17.2943 24.3697 20.3976C25.1493 23.3714 28.0324 25.3144 31.0286 24.8856C33.7076 24.5022 35.794 22.4367 36.178 19.7877C36.7816 15.6255 32.7864 12.0712 28.7242 13.1567ZM31.9211 15.346C34.9087 16.7545 35.0179 20.8677 32.11 22.4569C31.3508 22.8718 31.2139 22.9041 30.2212 22.9023C29.2448 22.9006 29.081 22.8629 28.3544 22.4737C25.2226 20.7959 25.59 16.3793 28.9626 15.1617C29.7573 14.8748 31.0991 14.9584 31.9211 15.346ZM7.05161 26.9854V31.003L6.45348 30.9152C5.66483 30.7995 4.47979 30.1642 4.02093 29.6111C3.31627 28.7617 3.09792 28.1372 3.09792 26.9711C3.09792 26.1009 3.15333 25.7941 3.40328 25.2822C4.03453 23.9892 5.42017 23.0413 6.76828 22.9804L7.05161 22.9676V26.9854ZM11.0811 26.9711V30.9746H10.0737H9.06635V26.9711V22.9676H10.0737H11.0811V26.9711ZM51.376 26.9711V30.9746H50.3686H49.3613V26.9711V22.9676H50.3686H51.376V26.9711ZM55.0892 23.3554C55.9118 23.7396 56.4632 24.2692 56.9231 25.1164C57.3156 25.8396 57.3526 25.9992 57.3526 26.9711C57.3526 27.9424 57.3155 28.103 56.9247 28.8229C56.6894 29.2565 56.3281 29.7523 56.1221 29.9246C55.5597 30.3946 54.6521 30.8151 53.985 30.9145L53.3907 31.003V26.9711V22.9392L53.9835 23.0276C54.3096 23.0761 54.8071 23.2236 55.0892 23.3554ZM38.9784 37.287C39.1733 37.4806 39.2875 37.737 39.2875 37.9808C39.2875 38.2245 39.1733 38.4809 38.9784 38.6745C38.6874 38.9636 38.5877 38.9816 37.2728 38.9816C35.9579 38.9816 35.8582 38.9636 35.5672 38.6745C35.3722 38.4809 35.258 38.2245 35.258 37.9808C35.258 37.737 35.3722 37.4806 35.5672 37.287C35.8582 36.9979 35.9579 36.9799 37.2728 36.9799C38.5877 36.9799 38.6874 36.9979 38.9784 37.287ZM8.36812 40.2896C8.11426 40.5417 8.05898 40.7207 8.05898 41.2905V41.9843H4.33863H0.618149L0.309137 42.2914L0 42.5984V49.9913V57.3841L0.309137 57.6911L0.618149 57.9983H4.33863H8.05898V58.692C8.05898 59.2619 8.11426 59.4408 8.36812 59.6929L8.67713 60H13.0958H17.5146L17.8236 59.6929C18.0934 59.4249 18.1327 59.2735 18.1327 58.5028V57.6198L19.0285 58.0681C20.9055 59.0071 20.8123 58.9994 30.1469 58.9972C39.1828 58.9952 39.3324 58.9854 40.7065 58.2945C41.0688 58.1124 44.1135 56.3866 47.4724 54.4594C50.8314 52.5322 54.6563 50.3386 55.9721 49.5845C59.507 47.5591 60.0029 46.9777 60 44.8618C59.9982 43.5797 59.835 43.1015 59.1052 42.2396C58.1084 41.0626 56.052 40.5486 54.6862 41.1351C54.4931 41.2181 52.0817 42.5756 49.3273 44.152L44.3194 47.0183L43.712 46.4538C43.3781 46.1434 42.94 45.8052 42.7387 45.7023C42.5373 45.5994 38.8311 44.571 34.5025 43.4171C24.6751 40.7972 25.4584 40.8827 21.1233 41.9587L18.1327 42.7011V41.649C18.1327 40.6985 18.1027 40.5669 17.8236 40.2896L17.5146 39.9825H13.0958H8.67713L8.36812 40.2896ZM16.118 49.9913V57.9983H13.0958H10.0737V49.9913V41.9843H13.0958H16.118V49.9913ZM57.1051 43.2203C57.3126 43.3392 57.615 43.6306 57.7772 43.8676C58.0205 44.2232 58.0636 44.4208 58.0231 44.995C57.9919 45.4383 57.8783 45.8249 57.7106 46.0584C57.5273 46.314 54.7958 47.9468 48.725 51.43C43.9277 54.1824 39.7427 56.547 39.4248 56.6846C38.8693 56.9251 38.5226 56.9363 30.536 56.9746C24.4457 57.0038 22.0401 56.9746 21.5326 56.8654C21.1517 56.7834 20.2309 56.4132 19.4864 56.0427L18.1327 55.3688V50.0683V44.7678L21.216 44.0016C23.4589 43.4442 24.5293 43.2353 25.1434 43.2353C25.8356 43.2353 27.3498 43.5968 33.5504 45.2417C37.7101 46.3453 41.3552 47.3356 41.6507 47.4423C42.3941 47.711 42.8441 48.3264 42.9035 49.1558C42.987 50.3238 42.143 51.2435 40.9895 51.2415C40.7113 51.2411 37.7413 50.5092 34.3894 49.6151C31.0375 48.721 28.1977 47.9895 28.0789 47.9895C27.9599 47.9895 27.7133 48.1062 27.5309 48.2489C27.1123 48.5759 27.0663 49.3327 27.4444 49.6726C27.7204 49.9207 27.7763 49.9368 35.0641 51.8713C39.9679 53.1728 40.4116 53.2695 41.2343 53.2158C43.2192 53.0865 44.7246 51.6254 44.9424 49.6167L45.017 48.9293L46.8428 47.8829C53.7453 43.9272 55.379 43.0064 55.5983 42.9477C55.9702 42.8484 56.6799 42.9767 57.1051 43.2203ZM8.05898 49.9913V55.9965H5.03686H2.01474V49.9913V43.986H5.03686H8.05898V49.9913ZM12.3976 54.3019C12.1275 54.5701 12.0885 54.721 12.0885 55.4961C12.0885 56.2711 12.1275 56.422 12.3976 56.6902C12.5924 56.8839 12.8505 56.9974 13.0958 56.9974C13.3411 56.9974 13.5993 56.8839 13.7941 56.6902C14.0642 56.422 14.1032 56.2711 14.1032 55.4961C14.1032 54.721 14.0642 54.5701 13.7941 54.3019C13.5993 54.1082 13.3411 53.9948 13.0958 53.9948C12.8505 53.9948 12.5924 54.1082 12.3976 54.3019Z" fill="#BDBDBD"/>
</svg>
