<svg width="35" height="35" viewBox="0 0 35 35" fill="none" xmlns="http://www.w3.org/2000/svg">
<path fill-rule="evenodd" clip-rule="evenodd" d="M16.1863 0.0329353C13.5918 0.28134 11.6621 0.829923 9.47739 1.94015C6.8894 3.25522 4.5671 5.33479 2.87378 7.85338C2.15682 8.91977 1.2807 10.72 0.860022 11.9912C0.52047 13.0172 0.250745 14.1849 0.0858978 15.3425C-0.0286326 16.1468 -0.0286326 18.8469 0.0858978 19.6512C0.372737 21.6658 0.905683 23.4304 1.73834 25.1227C2.68039 27.0373 3.60314 28.3236 5.12653 29.8456C6.6333 31.3509 7.94085 32.2909 9.78545 33.1949C11.0725 33.8257 11.9035 34.1327 13.2084 34.4597C16.6322 35.3177 20.0661 35.1531 23.4113 33.9709C24.4253 33.6126 26.1953 32.7263 27.1053 32.1213C29.6039 30.4603 31.6688 28.1668 33.036 25.534C34.273 23.1518 34.8919 20.7883 34.9885 18.0782C35.0924 15.1613 34.492 12.3852 33.193 9.77571C32.3401 8.06225 31.3905 6.71935 30.0572 5.34101C28.5787 3.81242 27.1285 2.7578 25.1885 1.80015C23.1607 0.799215 21.2713 0.264926 19.0273 0.0577621C18.3298 -0.00659607 16.7443 -0.0204799 16.1863 0.0329353ZM27.6091 9.8004C28.0245 10.0303 28.3676 10.3985 28.594 10.8575L28.7483 11.1705V17.4968V23.8232L28.594 24.1362C28.3676 24.5952 28.0245 24.9634 27.6091 25.1933L27.2423 25.3963H17.487H7.73171L7.36484 25.1933C6.94944 24.9634 6.60639 24.5952 6.38 24.1362L6.22563 23.8232V17.4968V11.1705L6.41772 10.7797C6.64897 10.3092 7.1034 9.89081 7.585 9.70513C7.93085 9.57176 8.10747 9.56957 17.5897 9.58339L27.2423 9.59741L27.6091 9.8004ZM9.8906 11.4366C10.1068 11.642 17.3597 17.3681 17.4451 17.4007C17.5154 17.4278 24.619 11.8818 25.0834 11.4374C25.1694 11.355 24.0933 11.3414 17.487 11.3414C10.908 11.3414 9.80489 11.3553 9.8906 11.4366ZM8.03977 17.8574C8.03977 23.1651 8.04566 23.4312 8.16498 23.5391C8.28012 23.6432 9.02611 23.6522 17.4989 23.6522C26.3452 23.6522 26.7121 23.6473 26.8213 23.5267C26.9256 23.4116 26.9336 22.9431 26.9175 17.858L26.9 12.3148L25.4623 13.459C19.7327 18.0188 17.8593 19.4779 17.6844 19.5162C17.5758 19.54 17.4007 19.5406 17.2952 19.5175C17.1897 19.4943 15.996 18.5976 14.6425 17.5247C12.6855 15.9735 9.11716 13.144 8.19688 12.4136L8.03977 12.289V17.8574Z" fill="#F89F1F"/>
</svg>
