<svg width="35" height="35" viewBox="0 0 35 35" fill="none" xmlns="http://www.w3.org/2000/svg">
<path fill-rule="evenodd" clip-rule="evenodd" d="M16.1817 0.0329353C12.9779 0.339816 10.2801 1.26627 7.83217 2.9004C5.20303 4.65544 3.16144 6.98061 1.77172 9.80259C0.903647 11.5654 0.377354 13.2948 0.0858734 15.3425C-0.0286245 16.1468 -0.0286245 18.8469 0.0858734 19.6512C0.372631 21.6658 0.905427 23.4304 1.73785 25.1227C2.67963 27.0373 3.60212 28.3236 5.12508 29.8456C6.63142 31.3509 7.9386 32.2909 9.78268 33.1949C11.0694 33.8257 11.9002 34.1327 13.2046 34.4597C16.6275 35.3177 20.0605 35.1531 23.4046 33.9709C24.4184 33.6126 26.1879 32.7263 27.0977 32.1213C29.143 30.7613 31.0206 28.8378 32.3604 26.7299C32.8533 25.9544 33.6455 24.3183 33.9687 23.4082C35.5765 18.8808 35.2966 14.0215 33.1836 9.77571C32.3309 8.06225 31.3816 6.71935 30.0487 5.34101C28.5706 3.81242 27.1208 2.7578 25.1814 1.80015C23.1542 0.799215 21.2653 0.264926 19.0219 0.0577621C18.3246 -0.00659607 16.7395 -0.0204799 16.1817 0.0329353ZM19.8268 6.07029C21.3151 6.39277 22.6797 6.97199 23.9837 7.8347C25.0778 8.55851 26.4263 9.90607 27.1506 10.9995C28.0129 12.3011 28.5935 13.6732 28.9264 15.1956C29.0591 15.8025 29.0782 16.0914 29.0782 17.4968C29.0782 19.2712 29.002 19.8079 28.5622 21.1317C27.9778 22.8908 27.0736 24.337 25.7001 25.7095C24.3267 27.082 22.8795 27.9857 21.1193 28.5697C19.8094 29.0043 19.2534 29.0841 17.5162 29.0869C16.1146 29.0892 15.86 29.0719 15.1913 28.9283C13.6491 28.5971 12.258 28.0093 10.941 27.1322C9.88048 26.426 8.51711 25.0583 7.81294 23.9942C6.94363 22.6806 6.37286 21.3326 6.03901 19.8051C5.90467 19.1902 5.88585 18.9066 5.88585 17.4968C5.88585 16.087 5.90467 15.8035 6.03901 15.1886C6.37286 13.6611 6.94363 12.3131 7.81294 10.9995C8.53271 9.91181 9.88041 8.56617 10.9827 7.83457C12.2963 6.96276 13.7079 6.37115 15.1571 6.0852C16.21 5.87749 16.166 5.88057 17.7216 5.90396C18.8689 5.92119 19.2935 5.95478 19.8268 6.07029ZM16.217 7.72206C14.6077 7.94372 12.9159 8.62834 11.6305 9.57819C11.0174 10.0313 10.0124 11.0352 9.56148 11.6451C6.34103 16.0005 7.24381 22.1059 11.5905 25.3676C12.7485 26.2366 14.0593 26.8279 15.5532 27.1552C16.4409 27.3497 18.3773 27.3659 19.2799 27.1863C23.3138 26.3841 26.3357 23.3578 27.1796 19.2751C27.3597 18.4034 27.3425 16.4617 27.1468 15.5693C26.8184 14.0729 26.2275 12.7665 25.3516 11.6006C23.879 9.64063 21.7224 8.28856 19.3173 7.8172C18.6367 7.68383 16.8848 7.63007 16.217 7.72206ZM17.9396 10.1753C18.3435 10.4214 18.3346 10.3458 18.3717 13.8351L18.4059 17.0469L20.3565 18.5037C22.1033 19.8084 22.3206 19.9922 22.4376 20.2634C22.563 20.5538 22.5635 20.5786 22.4501 20.8753C22.2223 21.4715 21.5988 21.6404 21.0354 21.2585C20.0632 20.5996 16.7499 18.0508 16.6789 17.9072C16.6152 17.7783 16.5941 16.8725 16.5934 14.2276C16.5922 10.3553 16.5827 10.4445 17.0234 10.176C17.3025 10.0059 17.6611 10.0056 17.9396 10.1753Z" fill="#F89F1F"/>
</svg>
