<svg width="35" height="35" viewBox="0 0 35 35" fill="none" xmlns="http://www.w3.org/2000/svg">
<path fill-rule="evenodd" clip-rule="evenodd" d="M16.1817 0.0329353C13.5879 0.28134 11.6588 0.829923 9.4747 1.94015C6.74461 3.32785 4.2438 5.63955 2.55986 8.33213C1.33762 10.2863 0.445929 12.8131 0.0858734 15.3425C-0.0286245 16.1468 -0.0286245 18.8469 0.0858734 19.6512C0.372631 21.6658 0.905427 23.4304 1.73785 25.1227C2.67963 27.0373 3.60212 28.3236 5.12508 29.8456C6.63142 31.3509 7.9386 32.2909 9.78268 33.1949C11.0694 33.8257 11.9002 34.1327 13.2046 34.4597C16.6275 35.3177 20.0605 35.1531 23.4046 33.9709C24.4184 33.6126 26.1879 32.7263 27.0977 32.1213C29.143 30.7613 31.0206 28.8378 32.3604 26.7299C32.8533 25.9544 33.6455 24.3183 33.9687 23.4082C35.5765 18.8808 35.2966 14.0215 33.1836 9.77571C32.3309 8.06225 31.3816 6.71935 30.0487 5.34101C28.5706 3.81242 27.1208 2.7578 25.1814 1.80015C23.1542 0.799215 21.2653 0.264926 19.0219 0.0577621C18.3246 -0.00659607 16.7395 -0.0204799 16.1817 0.0329353ZM12.5883 6.31097C13.018 6.44023 13.493 6.76955 13.7621 7.12464C14.1953 7.69641 16.1696 11.2111 16.2532 11.5593C16.2987 11.7491 16.3202 12.1011 16.3009 12.3414C16.2383 13.121 15.8821 13.6395 14.9502 14.3076C14.781 14.4289 14.5737 14.6498 14.4893 14.7985C14.2945 15.1423 14.2804 15.7218 14.4584 16.0706C14.9169 16.9693 18.01 20.0603 18.9092 20.5185C19.2583 20.6964 19.8382 20.6823 20.1821 20.4875C20.331 20.4033 20.552 20.1961 20.6734 20.027C21.342 19.0957 21.8607 18.7398 22.6409 18.6772C23.3643 18.6191 23.6308 18.7268 25.6748 19.9036C27.8681 21.1664 28.0646 21.3029 28.386 21.7872C28.915 22.5848 28.8966 23.1779 28.2965 24.6781C27.4425 26.813 26.9689 27.5219 26.0202 28.0856C24.4277 29.0315 22.382 28.9999 19.8647 27.9906C14.9549 26.0221 9.18377 20.3184 7.07839 15.3537C6.14605 13.1552 5.95812 11.365 6.49673 9.81387C6.87869 8.71383 7.50668 7.99495 8.55078 7.46237C9.16967 7.14674 11.0866 6.34605 11.4252 6.26186C11.7078 6.19155 12.2702 6.21535 12.5883 6.31097ZM10.7408 8.46037C8.93588 9.20927 8.55037 9.49297 8.2337 10.3055C8.04871 10.7801 7.98349 11.9302 8.10244 12.6212C8.47858 14.8067 10.2453 17.8157 12.7775 20.5837C15.6649 23.7399 19.4719 26.2734 22.1615 26.8286C23.2079 27.0446 24.3926 26.9395 25.0103 26.5759C25.6293 26.2115 25.8599 25.8517 26.544 24.1833C26.9461 23.2025 27.007 22.854 26.8068 22.6806C26.6423 22.5381 23.1635 20.5357 22.9821 20.4791C22.753 20.4076 22.4969 20.5675 22.2669 20.9255C21.9769 21.3771 21.352 21.9386 20.8873 22.165C20.0474 22.5743 18.9561 22.5659 18.1128 22.1437C16.7756 21.4743 13.3797 18.0566 12.7877 16.7846C12.4089 15.9705 12.418 14.8988 12.8107 14.0939C13.0373 13.6294 13.5992 13.0049 14.0511 12.7151C14.4093 12.4853 14.5693 12.2294 14.4978 12.0004C14.4412 11.8191 12.4375 8.34266 12.2949 8.17824C12.1179 7.9743 11.7523 8.04071 10.7408 8.46037Z" fill="#F89F1F"/>
</svg>
